<svg width="66" height="48" viewBox="0 0 66 48" fill="none" xmlns="http://www.w3.org/2000/svg">
<path fill-rule="evenodd" clip-rule="evenodd" d="M32.472 4.82305C24 8.78028 18.472 13.6591 14.972 21.0226C26.472 5.31393 42.1909 2.86064 53 3.87134C63.5 4.85313 61.472 9.24109 56.472 13.6591C53.9928 15.8498 49.4237 17.437 45.3858 18.8397C41.2804 20.2659 37.7241 21.5012 37.472 22.9861C37.1483 24.8934 38.9212 25.3598 41.2973 25.9848C42.5905 26.325 44.0623 26.7122 45.472 27.4042C48.7278 29.0024 55.972 32.804 57.972 37.2221C59.972 41.6401 54.472 43.6037 47.472 44.0946C41.8721 44.4873 31.1387 41.3129 26.472 39.6766C19.4989 37.2603 13.8322 33.7702 9.79674 30.4261C8.3722 23.1991 5.97205 16.6045 2.47203 18.0772C-3.71991 20.6825 2.8047 29.6143 10.123 35.6182C10.5222 38.0511 10.8072 40.3503 10.972 42.131C11.0901 40.8564 10.9852 38.6517 10.6838 36.0723C12.0995 37.2042 13.5534 38.2571 14.972 39.1857C23.972 45.0764 49.972 52.4398 58.472 44.5855C67.7548 36.0079 48.972 25.4406 44.472 24.4588C51.472 22.9861 67.5 14.1801 65 6.32581C62.5 -1.5285 47.3238 -2.1141 32.472 4.82305ZM8.9445 29.7012C7.64793 24.3238 5.80172 19.8246 3.47205 20.5317C1.66027 21.0815 3.75993 25.1729 8.9445 29.7012Z" fill="#FB2625"/>
</svg>
