<svg width="9" height="9" viewBox="0 0 9 9" fill="none" xmlns="http://www.w3.org/2000/svg">
<path d="M1 2.5C1 2.63261 1.05268 2.75979 1.14645 2.85355C1.24021 2.94732 1.36739 3 1.5 3C1.63261 3 1.75979 2.94732 1.85355 2.85355C1.94732 2.75979 2 2.63261 2 2.5V1.5C2 1.36739 1.94732 1.24021 1.85355 1.14645C1.75979 1.05268 1.63261 1 1.5 1C1.36739 1 1.24021 1.05268 1.14645 1.14645C1.05268 1.24021 1 1.36739 1 1.5V2.5ZM1 2.5C1 3.82608 1.52678 5.09785 2.46447 6.03553C3.40215 6.97322 4.67392 7.5 6 7.5M6 7.5H7C7.13261 7.5 7.25979 7.44732 7.35355 7.35355C7.44732 7.25979 7.5 7.13261 7.5 7C7.5 6.86739 7.44732 6.74021 7.35355 6.64645C7.25979 6.55268 7.13261 6.5 7 6.5H6C5.86739 6.5 5.74021 6.55268 5.64645 6.64645C5.55268 6.74021 5.5 6.86739 5.5 7C5.5 7.13261 5.55268 7.25979 5.64645 7.35355C5.74021 7.44732 5.86739 7.5 6 7.5Z" stroke="#5BDA68" stroke-width="2" stroke-linecap="round" stroke-linejoin="round"/>
</svg>
